<?xml version="1.0" encoding="utf-8"?>
<!-- Generator: Adobe Illustrator 23.0.3, SVG Export Plug-In . SVG Version: 6.00 Build 0)  -->
<svg version="1.1" id="layer" xmlns="http://www.w3.org/2000/svg" xmlns:xlink="http://www.w3.org/1999/xlink" x="0px" y="0px"
	 viewBox="0 0 652 212" style="enable-background:new 0 0 652 212;" xml:space="preserve">
<style type="text/css">
	.st0{fill:#FF2841;}
	.st1{fill:#FFFFFF;}
</style>
<g>
	<path d="M276.3,16.1c3.5,0,6.6,0.3,9.4,1.4c2.8,1,4.9,2.4,6.6,4.2c1.7,1.7,2.8,4.2,3.8,6.6c0.7,2.4,1,5.2,0.7,8l-15,2.8
		c0-2.4-0.7-4.2-1.4-5.9c-1-1.4-2.1-2.4-3.8-2.4c-1,0-1.7,0.3-2.4,0.7c-0.7,0.3-1,1-1.4,1.4c-1,1-1.4,1.7-1.4,2.4s-0.3,1.4-0.3,1.7
		v40.8c0,1,0.3,2.1,0.7,3.1c0.7,1,1.7,1.4,3.8,1.4c1.4,0,2.8-0.3,3.8-1s1.4-1.7,1.4-3.1V66h-5.2V52.4h20.9v24.8
		c0,6.6-1.7,11.5-5.2,15s-8.4,5.2-15,5.2c-7.3,0-12.6-1.7-15.7-4.9c-3.1-3.5-4.9-8.4-4.9-15V37c0-6.3,1.7-11.5,5.2-15.4
		C264.4,18.2,269.6,16.1,276.3,16.1L276.3,16.1z M303.2,96.7V16.8h36.7v15H319v17.1h18.5v15H319V82h20.9v15h-36.7V96.7z M374,54.5
		V16.8h15.4v79.9h-13.3l-9.4-23.4l-5.6-15h-0.7v38.4h-15.7V16.8h13.6l9.4,23l5.2,14.7L374,54.5z M397.7,96.7V16.8h36.7v15h-20.9
		v17.1H432v15h-18.5V82h20.9v15h-36.6v-0.3H397.7z M458.8,16.8c3.1,0,6.3,0.3,9.1,1c2.8,0.7,5.2,2.1,7,4.2c2.1,1.7,3.5,4.2,4.5,7.3
		s1.7,6.6,1.7,11.2c0,5.6-0.7,9.8-2.1,13.3s-3.8,6.3-6.6,8.4l11.5,34.6h-16.1l-9.4-31.1h-3.1v31.1h-15.7V16.9L458.8,16.8L458.8,16.8
		z M455.7,31.8v18.8h2.4c1,0,2.1,0,3.1-0.3s1.7-0.7,2.8-1.4c0.7-0.7,1.4-1.7,1.7-3.1c0.3-1.4,0.7-2.8,0.7-4.9c0-3.1-0.7-5.2-2.1-6.6
		c-1.4-1.4-3.5-2.1-5.9-2.1h-2.8C455.7,32.1,455.7,31.8,455.7,31.8z"/>
	<path d="M514.3,81h-11.9L500,96.7h-16.4l15-79.9h19.2l15.4,79.9h-16.4L514.3,81z M506.3,53.8l-1.7,12.6h7.3l-1.4-12.6l-1.7-16.1
		H508L506.3,53.8z M537,96.7V16.8h15.7v64.9h20.9v15H537z M281.2,176.6h-11.9l-2.1,15.7h-16.4l15-79.9H285l15,79.9h-16.4
		L281.2,176.6z M273.5,149.4l-1.7,12.6h7.3l-1.4-12.6l-2.1-16.4h-0.7L273.5,149.4L273.5,149.4z M343.6,168.9c0,3.8-0.3,7-1,10.1
		s-1.7,5.6-3.5,7.7c-1.4,2.1-3.8,3.8-6.3,4.9c-2.8,1-5.9,1.7-10.1,1.7c-3.8,0-7-0.7-9.4-1.7c-2.8-1-4.9-2.4-6.3-4.5
		c-1.7-1.7-2.8-4.2-3.5-6.6s-1-5.2-1-8l15.7-3.1c0,2.8,0.7,5.2,1.4,6.6c0.7,1.4,2.1,2.1,4.2,2.1c1,0,2.1-0.3,2.8-0.7
		c0.7-0.7,1-1.4,1.4-2.1c0.3-0.7,0.7-1.7,0.7-3.1v-3.5c0-1.7,0-2.8-0.3-3.8s-0.7-2.1-1-2.8c-0.7-0.7-1.4-1.4-2.4-2.1s-2.1-1-3.8-1.7
		c-3.8-1.7-7-3.1-9.4-4.9c-2.4-1.7-4.2-3.5-5.6-5.6s-2.1-3.8-2.4-6.3c-0.3-2.1-0.7-4.5-0.7-7.3c0-3.1,0.3-6.3,1-9.1
		c0.7-2.8,2.1-5.2,3.5-7.3c1.7-2.1,3.8-3.5,6.3-4.5c2.8-1,5.9-1.7,9.4-1.7c3.8,0,7.3,0.7,9.8,1.7c2.4,1.4,4.5,2.8,6.3,4.9
		c1.4,2.1,2.4,4.2,3.1,6.6s1,4.5,1,7l-15.4,3.5V132c0-1-0.3-1.7-0.7-2.8c-0.3-0.7-1-1.4-1.4-1.7c-0.7-0.3-1.4-0.7-2.8-0.7
		c-1,0-1.7,0.3-2.4,0.7c-0.7,0.3-1,1-1.4,1.7c-0.3,0.7-0.7,1.4-0.7,2.4v2.8c0,1,0,2.1,0.3,2.8c0,0.7,0.7,1.7,1,2.4
		c0.7,0.7,1.4,1.4,2.8,2.1l4.9,2.4c3.5,1.4,6.6,3.1,8.7,4.5c2.1,1.7,3.8,3.5,4.9,5.2c1,1.7,1.7,4.2,2.1,6.6
		C343.6,163,343.6,165.8,343.6,168.9L343.6,168.9z M390.1,168.9c0,3.8-0.3,7-1,10.1s-1.7,5.6-3.5,7.7c-1.4,2.1-3.8,3.8-6.3,4.9
		c-2.8,1-5.9,1.7-10.1,1.7c-3.8,0-7-0.7-9.4-1.7c-2.8-1-4.9-2.4-6.3-4.5c-1.7-1.7-2.8-4.2-3.5-6.6s-1-5.2-1-8l15.7-3.1
		c0,2.8,0.7,5.2,1.4,6.6c0.7,1.4,2.1,2.1,4.2,2.1c1,0,2.1-0.3,2.8-0.7c0.7-0.7,1-1.4,1.4-2.1c0.3-0.7,0.7-1.7,0.7-3.1v-3.5
		c0-1.7,0-2.8-0.3-3.8s-0.7-2.1-1-2.8c-0.7-0.7-1.4-1.4-2.4-2.1s-2.1-1-3.8-1.7c-3.8-1.7-7-3.1-9.4-4.9c-2.4-1.7-4.2-3.5-5.6-5.6
		s-2.1-3.8-2.4-6.3c-0.3-2.1-0.7-4.5-0.7-7.3c0-3.1,0.3-6.3,1-9.1c0.7-2.8,2.1-5.2,3.5-7.3c1.7-2.1,3.8-3.5,6.3-4.5
		c2.8-1,5.9-1.7,9.4-1.7c3.8,0,7.3,0.7,9.8,1.7c2.4,1.4,4.5,2.8,6.3,4.9c1.4,2.1,2.4,4.2,3.1,6.6s1,4.5,1,7l-15.4,3.5V132
		c0-1-0.3-1.7-0.7-2.8c-0.3-0.7-1-1.4-1.4-1.7c-0.7-0.3-1.4-0.7-2.8-0.7c-1,0-1.7,0.3-2.4,0.7c-0.7,0.3-1,1-1.4,1.7
		c-0.3,0.7-0.7,1.4-0.7,2.4v2.8c0,1,0,2.1,0.3,2.8c0,0.7,0.7,1.7,1,2.4c0.7,0.7,1.4,1.4,2.8,2.1l4.9,2.4c3.5,1.4,6.6,3.1,8.7,4.5
		c2.1,1.7,3.8,3.5,4.9,5.2c1,1.7,1.7,4.2,2.1,6.6C389.7,163,390.1,165.8,390.1,168.9L390.1,168.9z M396.3,192.3v-79.9H433v15h-20.9
		v17.1h18.5v15h-18.5v18.1H433v14.7L396.3,192.3L396.3,192.3z M461.3,176.6l-3.5-10.1l-3.5-11.9h-0.7v37.7h-15.7v-79.9h14.7l8,21.3
		l5.2,15.7h0.7l5.6-16.1l7.7-20.9h14.7v79.9h-15.7V155h-0.3l-3.8,12.2l-3.1,9.4H461.3z M533.2,150.4c1.7,0.7,3.5,1.4,4.5,2.8
		c1,1,2.1,2.4,2.8,3.8s1.4,3.1,1.4,4.9c0.3,1.7,0.3,3.5,0.3,5.2c0,8.7-1.7,15-5.6,18.8c-3.8,4.2-9.4,5.9-16.8,5.9H502v-79.6h18.1
		c7,0,12.6,1.7,16.1,5.6c3.5,3.8,5.2,9.4,5.2,16.8c0,1.7,0,3.1-0.3,4.9c-0.3,1.7-0.7,3.1-1.4,4.5s-1.7,2.4-2.8,3.8
		C536,149.1,534.6,149.8,533.2,150.4L533.2,150.4z M526.9,135.1c0-3.1-0.7-5.2-1.7-6.3c-1-1-3.1-1.4-5.6-1.4h-1.7v15.7h2.1
		C524.8,143.1,526.9,140.7,526.9,135.1z M527.6,166.5c0-3.1-0.7-5.6-1.7-6.6c-1-1.4-2.8-2.1-4.9-2.1h-2.8v19.9h2.8
		c1.4,0,2.8-0.3,3.5-0.7c1-0.7,1.4-1.4,2.1-2.4c0.3-1,0.7-2.1,1-3.5L527.6,166.5L527.6,166.5z M551,192.3v-79.9h15.7v64.9h20.9v15
		H551z M604,141.7l2.8-13.3l3.5-15.7h16.4l-15.4,47.5v32.1h-15.7v-32.5l-15.7-47.5h16.8l3.8,16.1l2.8,13.3H604z"/>
	<path class="st0" d="M218,105.1c0-3.8,3.1-7,7-7.3c-0.3-3.8-0.7-8-1.4-11.9c-3.8,1-7.7-1.4-8.7-4.9c-1-3.8,1.4-7.7,4.9-8.7
		c-1.4-3.8-2.8-7.3-4.5-10.8c-3.5,2.1-7.7,0.7-9.8-2.4c-2.1-3.5-0.7-7.7,2.4-9.8c-2.1-3.1-4.5-6.3-7.3-9.4c-2.8,2.8-7.3,2.8-10.1,0
		s-2.8-7.3,0-10.1c-2.8-2.4-5.9-4.9-9.4-7.3c-2.1,3.5-6.3,4.5-9.8,2.4s-4.5-6.3-2.4-9.8c-3.5-1.7-7-3.1-10.8-4.5
		c-1,3.8-4.9,5.9-8.7,4.9s-5.9-4.9-4.9-8.7c-3.8-0.7-7.7-1.4-11.5-1.4c0,3.8-3.1,7.3-7,7.3c-3.8,0-7-3.1-7-7.3
		c-3.8,0.3-7.7,0.7-11.5,1.4c1,3.8-1,7.7-4.9,8.7c-3.8,1-7.7-1.4-8.7-4.9c-3.8,1.4-7.3,2.8-10.8,4.5c2.1,3.5,0.7,7.7-2.4,9.8
		c-3.5,2.1-7.7,0.7-9.8-2.4c-3.1,2.1-6.3,4.5-9.4,7.3c2.8,2.8,2.8,7.3,0,10.1c-2.8,2.8-7.3,2.8-10.1,0l-7.3,9.4
		c3.5,2.1,4.5,6.3,2.4,9.8s-6.3,4.5-9.8,2.8c-1.7,3.5-3.1,7.3-4.5,10.8c3.8,1,5.9,4.9,4.9,8.7c-1,3.8-4.9,5.9-8.7,4.9
		C27.7,90.1,27,94,27,98.2c3.8,0,7,3.1,7,7.3c0,3.8-3.1,7-7,7c0.3,3.8,0.7,8,1.4,11.9c3.8-1,7.7,1.4,8.7,4.9c1,3.8-1.4,7.7-4.9,8.7
		c1.4,3.8,2.8,7.3,4.5,11.2c3.5-2.1,7.7-0.7,9.8,2.8s0.7,7.7-2.4,9.8c2.1,3.1,4.5,6.3,7.3,9.4c2.8-2.8,7.3-2.8,10.1,0
		c2.8,2.8,2.8,7.3,0,10.1c2.8,2.4,5.9,4.9,9.4,7.3c2.1-3.5,6.3-4.5,9.8-2.8c3.5,2.1,4.5,6.3,2.4,9.8c3.5,1.7,7,3.1,10.8,4.5
		c1-3.8,4.9-5.9,8.7-4.9c3.8,1,5.9,4.9,4.9,8.7c3.8,0.7,7.7,1.4,11.5,1.4c0-3.8,3.1-7,7-7c3.8,0,7,3.1,7,7c3.8-0.3,7.7-0.7,11.5-1.4
		c-1-3.8,1.4-7.7,4.9-8.7c3.8-1,7.7,1.4,8.7,4.9c3.8-1.4,7.3-2.8,10.8-4.5c-2.1-3.5-0.7-7.7,2.4-9.8c3.5-2.1,7.7-0.7,9.8,2.4
		c3.1-2.1,6.3-4.5,9.4-7.3c-2.8-2.8-2.8-7.3,0-10.1c2.8-2.8,7.3-2.8,10.1,0l7.3-9.4c-3.5-2.1-4.5-6.3-2.4-9.8s6.3-4.5,9.8-2.8
		c1.7-3.5,3.1-7.3,4.5-11.2c-3.8-1-5.9-4.9-4.9-8.7c1-3.8,4.9-5.9,8.7-5.2c0.7-3.8,1.4-7.7,1.4-11.9
		C221.1,112.4,218,108.9,218,105.1"/>
	<path class="st1" d="M98.6,46.4c-6.6,0-11.9,2.1-15.7,5.9c-3.5,3.8-5.2,9.1-5.2,15.7v75c0,7,1.7,11.9,4.9,15.4
		c3.5,3.5,8.7,5.2,15.7,5.2c6.6,0,11.5-1.7,15-5.2s5.2-8.7,5.2-15.4v-34.9H97.6v14h5.2v22c0,1.4-0.3,2.4-1.4,3.1
		c-1,0.7-2.1,1.4-3.8,1.4c-2.1,0-3.1-0.3-3.8-1.4c-0.3-1-0.7-2.1-0.7-3.1V67.7c0-0.7,0-1,0.3-2.1c0-0.7,0.3-1.4,0.7-2.1
		c0.3-0.7,1-1,1.4-1.7c0.7-0.3,1.4-0.7,2.4-0.7h0.3c1,0,1.7,0.3,2.4,0.7c0.7,0.3,1,1,1.4,1.7c0.3,0.7,0.7,1.4,0.7,2.1
		s0.3,1.4,0.3,2.1v17.5h15.7V67.7c0-6.6-1.7-11.5-5.2-15.7C110.8,48.5,105.6,46.4,98.6,46.4L98.6,46.4z"/>
	<polygon class="st1" points="158,47.1 138.8,47.1 123.4,163 140.1,163 143.6,134.7 153.1,134.7 156.6,163 173,163 	"/>
	<path class="st0" d="M148.5,121.1c-3.8,0-7-3.1-7-7c0-3.8,3.1-7,7-7c3.8,0,7,3.1,7,7S152.4,121.1,148.5,121.1z"/>
</g>
</svg>
