<?xml version="1.0" encoding="utf-8"?>
<!-- Generator: Adobe Illustrator 26.0.2, SVG Export Plug-In . SVG Version: 6.00 Build 0)  -->
<svg version="1.1" id="Layer_1" xmlns="http://www.w3.org/2000/svg" xmlns:xlink="http://www.w3.org/1999/xlink" x="0px" y="0px"
	 viewBox="0 0 36 36" style="enable-background:new 0 0 36 36;" xml:space="preserve">
<path d="M8.8,34.4V31c0-0.8,0.4-1.5,1.1-1.9l3.2-1.8c1-0.6,2.2,0.1,2.2,1.2l0,3.7c0,0.8-0.4,1.5-1.1,1.9l-3,1.7
	C10.1,36.4,8.8,35.6,8.8,34.4z"/>
<path d="M8.8,24.7l0-3.8c0-0.8,0.4-1.5,1.1-1.9l9.8-5.6c1-0.5,2.2,0.1,2.2,1.3l0,3.7c0,0.8-0.4,1.5-1.1,1.9l-9.8,5.6
	C10,26.5,8.8,25.8,8.8,24.7z"/>
<path d="M8.8,14.7l0-3.7c0-0.8,0.4-1.5,1.1-1.9l15.2-8.8c1-0.6,2.2,0.1,2.2,1.3l0,3.8c0,0.8-0.4,1.5-1.1,1.9L11,15.9
	C10,16.5,8.8,15.8,8.8,14.7z"/>
</svg>
